<mxfile host="app.diagrams.net" agent="Mozilla/5.0 (Windows NT 10.0; Win64; x64) AppleWebKit/537.36 (KHTML, like Gecko) Chrome/131.0.0.0 Safari/537.36" version="24.8.6">
  <diagram name="Page-1" id="2St0QyDgq2FTuK4Q9YjB">
    <mxGraphModel dx="1687" dy="878" grid="1" gridSize="10" guides="1" tooltips="1" connect="1" arrows="1" fold="1" page="1" pageScale="1" pageWidth="850" pageHeight="1100" math="0" shadow="0">
      <root>
        <mxCell id="0" />
        <mxCell id="1" parent="0" />
        <mxCell id="0yb2NVq4CXMQELFgcC-r-3" value="&lt;font style=&quot;font-size: 20px;&quot;&gt;Augments&lt;/font&gt;" style="swimlane;fontStyle=0;childLayout=stackLayout;horizontal=1;startSize=30;horizontalStack=0;resizeParent=1;resizeParentMax=0;resizeLast=0;collapsible=1;marginBottom=0;whiteSpace=wrap;html=1;" vertex="1" parent="1">
          <mxGeometry x="10" y="10" width="130" height="150" as="geometry" />
        </mxCell>
        <mxCell id="0yb2NVq4CXMQELFgcC-r-4" value="&lt;font style=&quot;font-size: 16px;&quot;&gt;ID&lt;/font&gt;" style="text;strokeColor=none;fillColor=none;align=left;verticalAlign=middle;spacingLeft=4;spacingRight=4;overflow=hidden;points=[[0,0.5],[1,0.5]];portConstraint=eastwest;rotatable=0;whiteSpace=wrap;html=1;" vertex="1" parent="0yb2NVq4CXMQELFgcC-r-3">
          <mxGeometry y="30" width="130" height="30" as="geometry" />
        </mxCell>
        <mxCell id="0yb2NVq4CXMQELFgcC-r-5" value="&lt;font style=&quot;font-size: 16px;&quot;&gt;Name&lt;/font&gt;" style="text;strokeColor=none;fillColor=none;align=left;verticalAlign=middle;spacingLeft=4;spacingRight=4;overflow=hidden;points=[[0,0.5],[1,0.5]];portConstraint=eastwest;rotatable=0;whiteSpace=wrap;html=1;" vertex="1" parent="0yb2NVq4CXMQELFgcC-r-3">
          <mxGeometry y="60" width="130" height="30" as="geometry" />
        </mxCell>
        <mxCell id="0yb2NVq4CXMQELFgcC-r-6" value="&lt;span style=&quot;font-size: 16px;&quot;&gt;Tier&lt;/span&gt;" style="text;strokeColor=none;fillColor=none;align=left;verticalAlign=middle;spacingLeft=4;spacingRight=4;overflow=hidden;points=[[0,0.5],[1,0.5]];portConstraint=eastwest;rotatable=0;whiteSpace=wrap;html=1;" vertex="1" parent="0yb2NVq4CXMQELFgcC-r-3">
          <mxGeometry y="90" width="130" height="30" as="geometry" />
        </mxCell>
        <mxCell id="0yb2NVq4CXMQELFgcC-r-7" value="&lt;span style=&quot;font-size: 16px;&quot;&gt;Effect&lt;/span&gt;" style="text;strokeColor=none;fillColor=none;align=left;verticalAlign=middle;spacingLeft=4;spacingRight=4;overflow=hidden;points=[[0,0.5],[1,0.5]];portConstraint=eastwest;rotatable=0;whiteSpace=wrap;html=1;" vertex="1" parent="0yb2NVq4CXMQELFgcC-r-3">
          <mxGeometry y="120" width="130" height="30" as="geometry" />
        </mxCell>
        <mxCell id="0yb2NVq4CXMQELFgcC-r-8" value="&lt;font style=&quot;font-size: 16px;&quot;&gt;Portals&lt;/font&gt;" style="swimlane;fontStyle=0;childLayout=stackLayout;horizontal=1;startSize=30;horizontalStack=0;resizeParent=1;resizeParentMax=0;resizeLast=0;collapsible=1;marginBottom=0;whiteSpace=wrap;html=1;" vertex="1" parent="1">
          <mxGeometry x="160" y="10" width="140" height="120" as="geometry" />
        </mxCell>
        <mxCell id="0yb2NVq4CXMQELFgcC-r-9" value="&lt;font style=&quot;font-size: 16px;&quot;&gt;ID&lt;/font&gt;" style="text;strokeColor=none;fillColor=none;align=left;verticalAlign=middle;spacingLeft=4;spacingRight=4;overflow=hidden;points=[[0,0.5],[1,0.5]];portConstraint=eastwest;rotatable=0;whiteSpace=wrap;html=1;" vertex="1" parent="0yb2NVq4CXMQELFgcC-r-8">
          <mxGeometry y="30" width="140" height="30" as="geometry" />
        </mxCell>
        <mxCell id="0yb2NVq4CXMQELFgcC-r-10" value="&lt;font style=&quot;font-size: 16px;&quot;&gt;Name&lt;/font&gt;" style="text;strokeColor=none;fillColor=none;align=left;verticalAlign=middle;spacingLeft=4;spacingRight=4;overflow=hidden;points=[[0,0.5],[1,0.5]];portConstraint=eastwest;rotatable=0;whiteSpace=wrap;html=1;" vertex="1" parent="0yb2NVq4CXMQELFgcC-r-8">
          <mxGeometry y="60" width="140" height="30" as="geometry" />
        </mxCell>
        <mxCell id="0yb2NVq4CXMQELFgcC-r-11" value="&lt;font style=&quot;font-size: 16px;&quot;&gt;Effect&lt;/font&gt;" style="text;strokeColor=none;fillColor=none;align=left;verticalAlign=middle;spacingLeft=4;spacingRight=4;overflow=hidden;points=[[0,0.5],[1,0.5]];portConstraint=eastwest;rotatable=0;whiteSpace=wrap;html=1;" vertex="1" parent="0yb2NVq4CXMQELFgcC-r-8">
          <mxGeometry y="90" width="140" height="30" as="geometry" />
        </mxCell>
        <mxCell id="0yb2NVq4CXMQELFgcC-r-12" value="&lt;font style=&quot;font-size: 16px;&quot;&gt;Class&lt;/font&gt;" style="swimlane;fontStyle=0;childLayout=stackLayout;horizontal=1;startSize=30;horizontalStack=0;resizeParent=1;resizeParentMax=0;resizeLast=0;collapsible=1;marginBottom=0;whiteSpace=wrap;html=1;" vertex="1" parent="1">
          <mxGeometry x="60" y="240" width="140" height="120" as="geometry" />
        </mxCell>
        <mxCell id="0yb2NVq4CXMQELFgcC-r-13" value="&lt;font style=&quot;font-size: 16px;&quot;&gt;ClassID&lt;/font&gt;" style="text;strokeColor=none;fillColor=none;align=left;verticalAlign=middle;spacingLeft=4;spacingRight=4;overflow=hidden;points=[[0,0.5],[1,0.5]];portConstraint=eastwest;rotatable=0;whiteSpace=wrap;html=1;" vertex="1" parent="0yb2NVq4CXMQELFgcC-r-12">
          <mxGeometry y="30" width="140" height="30" as="geometry" />
        </mxCell>
        <mxCell id="0yb2NVq4CXMQELFgcC-r-14" value="&lt;span style=&quot;font-size: 16px;&quot;&gt;Name&lt;/span&gt;" style="text;strokeColor=none;fillColor=none;align=left;verticalAlign=middle;spacingLeft=4;spacingRight=4;overflow=hidden;points=[[0,0.5],[1,0.5]];portConstraint=eastwest;rotatable=0;whiteSpace=wrap;html=1;" vertex="1" parent="0yb2NVq4CXMQELFgcC-r-12">
          <mxGeometry y="60" width="140" height="30" as="geometry" />
        </mxCell>
        <mxCell id="0yb2NVq4CXMQELFgcC-r-15" value="&lt;font style=&quot;font-size: 16px;&quot;&gt;Effect&lt;/font&gt;" style="text;strokeColor=none;fillColor=none;align=left;verticalAlign=middle;spacingLeft=4;spacingRight=4;overflow=hidden;points=[[0,0.5],[1,0.5]];portConstraint=eastwest;rotatable=0;whiteSpace=wrap;html=1;" vertex="1" parent="0yb2NVq4CXMQELFgcC-r-12">
          <mxGeometry y="90" width="140" height="30" as="geometry" />
        </mxCell>
        <mxCell id="0yb2NVq4CXMQELFgcC-r-17" value="&lt;font style=&quot;font-size: 16px;&quot;&gt;ClassCharacter&lt;/font&gt;" style="swimlane;fontStyle=0;childLayout=stackLayout;horizontal=1;startSize=30;horizontalStack=0;resizeParent=1;resizeParentMax=0;resizeLast=0;collapsible=1;marginBottom=0;whiteSpace=wrap;html=1;" vertex="1" parent="1">
          <mxGeometry x="250" y="240" width="140" height="90" as="geometry" />
        </mxCell>
        <mxCell id="0yb2NVq4CXMQELFgcC-r-18" value="&lt;font style=&quot;font-size: 16px;&quot;&gt;CharacterID&lt;/font&gt;" style="text;strokeColor=none;fillColor=none;align=left;verticalAlign=middle;spacingLeft=4;spacingRight=4;overflow=hidden;points=[[0,0.5],[1,0.5]];portConstraint=eastwest;rotatable=0;whiteSpace=wrap;html=1;" vertex="1" parent="0yb2NVq4CXMQELFgcC-r-17">
          <mxGeometry y="30" width="140" height="30" as="geometry" />
        </mxCell>
        <mxCell id="0yb2NVq4CXMQELFgcC-r-19" value="&lt;span style=&quot;font-size: 16px;&quot;&gt;ClassID&lt;/span&gt;" style="text;strokeColor=none;fillColor=none;align=left;verticalAlign=middle;spacingLeft=4;spacingRight=4;overflow=hidden;points=[[0,0.5],[1,0.5]];portConstraint=eastwest;rotatable=0;whiteSpace=wrap;html=1;" vertex="1" parent="0yb2NVq4CXMQELFgcC-r-17">
          <mxGeometry y="60" width="140" height="30" as="geometry" />
        </mxCell>
        <mxCell id="0yb2NVq4CXMQELFgcC-r-21" value="&lt;font style=&quot;font-size: 16px;&quot;&gt;Character&lt;/font&gt;" style="swimlane;fontStyle=0;childLayout=stackLayout;horizontal=1;startSize=30;horizontalStack=0;resizeParent=1;resizeParentMax=0;resizeLast=0;collapsible=1;marginBottom=0;whiteSpace=wrap;html=1;" vertex="1" parent="1">
          <mxGeometry x="450" y="60" width="140" height="450" as="geometry" />
        </mxCell>
        <mxCell id="0yb2NVq4CXMQELFgcC-r-39" value="&lt;font style=&quot;font-size: 16px;&quot;&gt;CharaterID&lt;/font&gt;" style="text;strokeColor=none;fillColor=none;align=left;verticalAlign=middle;spacingLeft=4;spacingRight=4;overflow=hidden;points=[[0,0.5],[1,0.5]];portConstraint=eastwest;rotatable=0;whiteSpace=wrap;html=1;" vertex="1" parent="0yb2NVq4CXMQELFgcC-r-21">
          <mxGeometry y="30" width="140" height="30" as="geometry" />
        </mxCell>
        <mxCell id="0yb2NVq4CXMQELFgcC-r-25" value="&lt;span style=&quot;font-size: 16px;&quot;&gt;Name&lt;/span&gt;" style="text;strokeColor=none;fillColor=none;align=left;verticalAlign=middle;spacingLeft=4;spacingRight=4;overflow=hidden;points=[[0,0.5],[1,0.5]];portConstraint=eastwest;rotatable=0;whiteSpace=wrap;html=1;" vertex="1" parent="0yb2NVq4CXMQELFgcC-r-21">
          <mxGeometry y="60" width="140" height="30" as="geometry" />
        </mxCell>
        <mxCell id="0yb2NVq4CXMQELFgcC-r-26" value="&lt;font style=&quot;font-size: 16px;&quot;&gt;Ability&lt;/font&gt;" style="text;strokeColor=none;fillColor=none;align=left;verticalAlign=middle;spacingLeft=4;spacingRight=4;overflow=hidden;points=[[0,0.5],[1,0.5]];portConstraint=eastwest;rotatable=0;whiteSpace=wrap;html=1;" vertex="1" parent="0yb2NVq4CXMQELFgcC-r-21">
          <mxGeometry y="90" width="140" height="30" as="geometry" />
        </mxCell>
        <mxCell id="0yb2NVq4CXMQELFgcC-r-27" value="&lt;font style=&quot;font-size: 16px;&quot;&gt;Cost&lt;/font&gt;" style="text;strokeColor=none;fillColor=none;align=left;verticalAlign=middle;spacingLeft=4;spacingRight=4;overflow=hidden;points=[[0,0.5],[1,0.5]];portConstraint=eastwest;rotatable=0;whiteSpace=wrap;html=1;" vertex="1" parent="0yb2NVq4CXMQELFgcC-r-21">
          <mxGeometry y="120" width="140" height="30" as="geometry" />
        </mxCell>
        <mxCell id="0yb2NVq4CXMQELFgcC-r-28" value="&lt;font style=&quot;font-size: 16px;&quot;&gt;Health&lt;/font&gt;" style="text;strokeColor=none;fillColor=none;align=left;verticalAlign=middle;spacingLeft=4;spacingRight=4;overflow=hidden;points=[[0,0.5],[1,0.5]];portConstraint=eastwest;rotatable=0;whiteSpace=wrap;html=1;" vertex="1" parent="0yb2NVq4CXMQELFgcC-r-21">
          <mxGeometry y="150" width="140" height="30" as="geometry" />
        </mxCell>
        <mxCell id="0yb2NVq4CXMQELFgcC-r-29" value="&lt;font style=&quot;font-size: 16px;&quot;&gt;Attackspeed&lt;/font&gt;" style="text;strokeColor=none;fillColor=none;align=left;verticalAlign=middle;spacingLeft=4;spacingRight=4;overflow=hidden;points=[[0,0.5],[1,0.5]];portConstraint=eastwest;rotatable=0;whiteSpace=wrap;html=1;" vertex="1" parent="0yb2NVq4CXMQELFgcC-r-21">
          <mxGeometry y="180" width="140" height="30" as="geometry" />
        </mxCell>
        <mxCell id="0yb2NVq4CXMQELFgcC-r-32" value="&lt;font style=&quot;font-size: 16px;&quot;&gt;AttackDamage&lt;/font&gt;" style="text;strokeColor=none;fillColor=none;align=left;verticalAlign=middle;spacingLeft=4;spacingRight=4;overflow=hidden;points=[[0,0.5],[1,0.5]];portConstraint=eastwest;rotatable=0;whiteSpace=wrap;html=1;" vertex="1" parent="0yb2NVq4CXMQELFgcC-r-21">
          <mxGeometry y="210" width="140" height="30" as="geometry" />
        </mxCell>
        <mxCell id="0yb2NVq4CXMQELFgcC-r-31" value="&lt;font style=&quot;font-size: 16px;&quot;&gt;AbilityPower&lt;/font&gt;" style="text;strokeColor=none;fillColor=none;align=left;verticalAlign=middle;spacingLeft=4;spacingRight=4;overflow=hidden;points=[[0,0.5],[1,0.5]];portConstraint=eastwest;rotatable=0;whiteSpace=wrap;html=1;" vertex="1" parent="0yb2NVq4CXMQELFgcC-r-21">
          <mxGeometry y="240" width="140" height="30" as="geometry" />
        </mxCell>
        <mxCell id="0yb2NVq4CXMQELFgcC-r-30" value="&lt;font style=&quot;font-size: 16px;&quot;&gt;Mana Start&lt;/font&gt;" style="text;strokeColor=none;fillColor=none;align=left;verticalAlign=middle;spacingLeft=4;spacingRight=4;overflow=hidden;points=[[0,0.5],[1,0.5]];portConstraint=eastwest;rotatable=0;whiteSpace=wrap;html=1;" vertex="1" parent="0yb2NVq4CXMQELFgcC-r-21">
          <mxGeometry y="270" width="140" height="30" as="geometry" />
        </mxCell>
        <mxCell id="0yb2NVq4CXMQELFgcC-r-33" value="&lt;font style=&quot;font-size: 16px;&quot;&gt;Mana Max&lt;/font&gt;&lt;span style=&quot;color: rgba(0, 0, 0, 0); font-family: monospace; font-size: 0px; text-wrap-mode: nowrap;&quot;&gt;%3CmxGraphModel%3E%3Croot%3E%3CmxCell%20id%3D%220%22%2F%3E%3CmxCell%20id%3D%221%22%20parent%3D%220%22%2F%3E%3CmxCell%20id%3D%222%22%20value%3D%22%26lt%3Bfont%20style%3D%26quot%3Bfont-size%3A%2016px%3B%26quot%3B%26gt%3BItem%203%26lt%3B%2Ffont%26gt%3B%22%20style%3D%22text%3BstrokeColor%3Dnone%3BfillColor%3Dnone%3Balign%3Dleft%3BverticalAlign%3Dmiddle%3BspacingLeft%3D4%3BspacingRight%3D4%3Boverflow%3Dhidden%3Bpoints%3D%5B%5B0%2C0.5%5D%2C%5B1%2C0.5%5D%5D%3BportConstraint%3Deastwest%3Brotatable%3D0%3BwhiteSpace%3Dwrap%3Bhtml%3D1%3B%22%20vertex%3D%221%22%20parent%3D%221%22%3E%3CmxGeometry%20x%3D%22350%22%20y%3D%22100%22%20width%3D%22140%22%20height%3D%2230%22%20as%3D%22geometry%22%2F%3E%3C%2FmxCell%3E%3C%2Froot%3E%3C%2FmxGraphModel%3E&lt;/span&gt;" style="text;strokeColor=none;fillColor=none;align=left;verticalAlign=middle;spacingLeft=4;spacingRight=4;overflow=hidden;points=[[0,0.5],[1,0.5]];portConstraint=eastwest;rotatable=0;whiteSpace=wrap;html=1;" vertex="1" parent="0yb2NVq4CXMQELFgcC-r-21">
          <mxGeometry y="300" width="140" height="30" as="geometry" />
        </mxCell>
        <mxCell id="0yb2NVq4CXMQELFgcC-r-34" value="&lt;font style=&quot;font-size: 16px;&quot;&gt;Armor&lt;/font&gt;" style="text;strokeColor=none;fillColor=none;align=left;verticalAlign=middle;spacingLeft=4;spacingRight=4;overflow=hidden;points=[[0,0.5],[1,0.5]];portConstraint=eastwest;rotatable=0;whiteSpace=wrap;html=1;" vertex="1" parent="0yb2NVq4CXMQELFgcC-r-21">
          <mxGeometry y="330" width="140" height="30" as="geometry" />
        </mxCell>
        <mxCell id="0yb2NVq4CXMQELFgcC-r-35" value="&lt;font style=&quot;font-size: 16px;&quot;&gt;MagicResist&lt;/font&gt;" style="text;strokeColor=none;fillColor=none;align=left;verticalAlign=middle;spacingLeft=4;spacingRight=4;overflow=hidden;points=[[0,0.5],[1,0.5]];portConstraint=eastwest;rotatable=0;whiteSpace=wrap;html=1;" vertex="1" parent="0yb2NVq4CXMQELFgcC-r-21">
          <mxGeometry y="360" width="140" height="30" as="geometry" />
        </mxCell>
        <mxCell id="0yb2NVq4CXMQELFgcC-r-36" value="&lt;font style=&quot;font-size: 16px;&quot;&gt;DamagePerSec&lt;/font&gt;" style="text;strokeColor=none;fillColor=none;align=left;verticalAlign=middle;spacingLeft=4;spacingRight=4;overflow=hidden;points=[[0,0.5],[1,0.5]];portConstraint=eastwest;rotatable=0;whiteSpace=wrap;html=1;" vertex="1" parent="0yb2NVq4CXMQELFgcC-r-21">
          <mxGeometry y="390" width="140" height="30" as="geometry" />
        </mxCell>
        <mxCell id="0yb2NVq4CXMQELFgcC-r-37" value="&lt;font style=&quot;font-size: 16px;&quot;&gt;Range&lt;/font&gt;" style="text;strokeColor=none;fillColor=none;align=left;verticalAlign=middle;spacingLeft=4;spacingRight=4;overflow=hidden;points=[[0,0.5],[1,0.5]];portConstraint=eastwest;rotatable=0;whiteSpace=wrap;html=1;" vertex="1" parent="0yb2NVq4CXMQELFgcC-r-21">
          <mxGeometry y="420" width="140" height="30" as="geometry" />
        </mxCell>
        <mxCell id="0yb2NVq4CXMQELFgcC-r-38" value="" style="edgeStyle=orthogonalEdgeStyle;rounded=0;orthogonalLoop=1;jettySize=auto;html=1;" edge="1" parent="1" source="0yb2NVq4CXMQELFgcC-r-13" target="0yb2NVq4CXMQELFgcC-r-19">
          <mxGeometry relative="1" as="geometry" />
        </mxCell>
        <mxCell id="0yb2NVq4CXMQELFgcC-r-41" style="edgeStyle=orthogonalEdgeStyle;rounded=0;orthogonalLoop=1;jettySize=auto;html=1;entryX=1;entryY=0.5;entryDx=0;entryDy=0;" edge="1" parent="1" source="0yb2NVq4CXMQELFgcC-r-39" target="0yb2NVq4CXMQELFgcC-r-18">
          <mxGeometry relative="1" as="geometry" />
        </mxCell>
        <mxCell id="0yb2NVq4CXMQELFgcC-r-42" value="&lt;font style=&quot;font-size: 16px;&quot;&gt;Half Items&lt;/font&gt;" style="swimlane;fontStyle=0;childLayout=stackLayout;horizontal=1;startSize=30;horizontalStack=0;resizeParent=1;resizeParentMax=0;resizeLast=0;collapsible=1;marginBottom=0;whiteSpace=wrap;html=1;" vertex="1" parent="1">
          <mxGeometry x="10" y="630" width="140" height="150" as="geometry" />
        </mxCell>
        <mxCell id="0yb2NVq4CXMQELFgcC-r-43" value="&lt;font style=&quot;font-size: 16px;&quot;&gt;HalfItemID&lt;/font&gt;" style="text;strokeColor=none;fillColor=none;align=left;verticalAlign=middle;spacingLeft=4;spacingRight=4;overflow=hidden;points=[[0,0.5],[1,0.5]];portConstraint=eastwest;rotatable=0;whiteSpace=wrap;html=1;" vertex="1" parent="0yb2NVq4CXMQELFgcC-r-42">
          <mxGeometry y="30" width="140" height="30" as="geometry" />
        </mxCell>
        <mxCell id="0yb2NVq4CXMQELFgcC-r-44" value="&lt;font style=&quot;font-size: 16px;&quot;&gt;Name&lt;/font&gt;" style="text;strokeColor=none;fillColor=none;align=left;verticalAlign=middle;spacingLeft=4;spacingRight=4;overflow=hidden;points=[[0,0.5],[1,0.5]];portConstraint=eastwest;rotatable=0;whiteSpace=wrap;html=1;" vertex="1" parent="0yb2NVq4CXMQELFgcC-r-42">
          <mxGeometry y="60" width="140" height="30" as="geometry" />
        </mxCell>
        <mxCell id="0yb2NVq4CXMQELFgcC-r-95" value="&lt;font style=&quot;font-size: 16px;&quot;&gt;Stat&lt;/font&gt;" style="text;strokeColor=none;fillColor=none;align=left;verticalAlign=middle;spacingLeft=4;spacingRight=4;overflow=hidden;points=[[0,0.5],[1,0.5]];portConstraint=eastwest;rotatable=0;whiteSpace=wrap;html=1;" vertex="1" parent="0yb2NVq4CXMQELFgcC-r-42">
          <mxGeometry y="90" width="140" height="30" as="geometry" />
        </mxCell>
        <mxCell id="0yb2NVq4CXMQELFgcC-r-45" value="&lt;font style=&quot;font-size: 16px;&quot;&gt;Stat&lt;/font&gt;" style="text;strokeColor=none;fillColor=none;align=left;verticalAlign=middle;spacingLeft=4;spacingRight=4;overflow=hidden;points=[[0,0.5],[1,0.5]];portConstraint=eastwest;rotatable=0;whiteSpace=wrap;html=1;" vertex="1" parent="0yb2NVq4CXMQELFgcC-r-42">
          <mxGeometry y="120" width="140" height="30" as="geometry" />
        </mxCell>
        <mxCell id="0yb2NVq4CXMQELFgcC-r-46" value="" style="endArrow=classic;html=1;rounded=0;entryX=-0.014;entryY=0.293;entryDx=0;entryDy=0;exitX=0;exitY=0.5;exitDx=0;exitDy=0;entryPerimeter=0;" edge="1" parent="1" source="0yb2NVq4CXMQELFgcC-r-13" target="0yb2NVq4CXMQELFgcC-r-75">
          <mxGeometry width="50" height="50" relative="1" as="geometry">
            <mxPoint x="60" y="460" as="sourcePoint" />
            <mxPoint x="60" y="280" as="targetPoint" />
            <Array as="points">
              <mxPoint x="20" y="285" />
              <mxPoint x="20" y="459" />
            </Array>
          </mxGeometry>
        </mxCell>
        <mxCell id="0yb2NVq4CXMQELFgcC-r-51" value="&lt;font style=&quot;font-size: 16px;&quot;&gt;HalfitemsFulls&lt;/font&gt;" style="swimlane;fontStyle=0;childLayout=stackLayout;horizontal=1;startSize=30;horizontalStack=0;resizeParent=1;resizeParentMax=0;resizeLast=0;collapsible=1;marginBottom=0;whiteSpace=wrap;html=1;" vertex="1" parent="1">
          <mxGeometry x="180" y="630" width="140" height="90" as="geometry" />
        </mxCell>
        <mxCell id="0yb2NVq4CXMQELFgcC-r-58" value="&lt;font style=&quot;font-size: 16px;&quot;&gt;HalfItemID&lt;/font&gt;" style="text;strokeColor=none;fillColor=none;align=left;verticalAlign=middle;spacingLeft=4;spacingRight=4;overflow=hidden;points=[[0,0.5],[1,0.5]];portConstraint=eastwest;rotatable=0;whiteSpace=wrap;html=1;" vertex="1" parent="0yb2NVq4CXMQELFgcC-r-51">
          <mxGeometry y="30" width="140" height="30" as="geometry" />
        </mxCell>
        <mxCell id="0yb2NVq4CXMQELFgcC-r-57" value="&lt;font style=&quot;font-size: 16px;&quot;&gt;FullItemID&lt;/font&gt;" style="text;strokeColor=none;fillColor=none;align=left;verticalAlign=middle;spacingLeft=4;spacingRight=4;overflow=hidden;points=[[0,0.5],[1,0.5]];portConstraint=eastwest;rotatable=0;whiteSpace=wrap;html=1;" vertex="1" parent="0yb2NVq4CXMQELFgcC-r-51">
          <mxGeometry y="60" width="140" height="30" as="geometry" />
        </mxCell>
        <mxCell id="0yb2NVq4CXMQELFgcC-r-60" value="&lt;font style=&quot;font-size: 16px;&quot;&gt;Full Items&lt;/font&gt;" style="swimlane;fontStyle=0;childLayout=stackLayout;horizontal=1;startSize=30;horizontalStack=0;resizeParent=1;resizeParentMax=0;resizeLast=0;collapsible=1;marginBottom=0;whiteSpace=wrap;html=1;" vertex="1" parent="1">
          <mxGeometry x="350" y="630" width="140" height="150" as="geometry" />
        </mxCell>
        <mxCell id="0yb2NVq4CXMQELFgcC-r-61" value="&lt;font style=&quot;font-size: 16px;&quot;&gt;FullItemID&lt;/font&gt;" style="text;strokeColor=none;fillColor=none;align=left;verticalAlign=middle;spacingLeft=4;spacingRight=4;overflow=hidden;points=[[0,0.5],[1,0.5]];portConstraint=eastwest;rotatable=0;whiteSpace=wrap;html=1;" vertex="1" parent="0yb2NVq4CXMQELFgcC-r-60">
          <mxGeometry y="30" width="140" height="30" as="geometry" />
        </mxCell>
        <mxCell id="0yb2NVq4CXMQELFgcC-r-59" value="&lt;span style=&quot;font-size: 16px;&quot;&gt;Name&lt;/span&gt;" style="text;strokeColor=none;fillColor=none;align=left;verticalAlign=middle;spacingLeft=4;spacingRight=4;overflow=hidden;points=[[0,0.5],[1,0.5]];portConstraint=eastwest;rotatable=0;whiteSpace=wrap;html=1;" vertex="1" parent="0yb2NVq4CXMQELFgcC-r-60">
          <mxGeometry y="60" width="140" height="30" as="geometry" />
        </mxCell>
        <mxCell id="0yb2NVq4CXMQELFgcC-r-64" value="&lt;font style=&quot;font-size: 16px;&quot;&gt;Stats&lt;/font&gt;" style="text;strokeColor=none;fillColor=none;align=left;verticalAlign=middle;spacingLeft=4;spacingRight=4;overflow=hidden;points=[[0,0.5],[1,0.5]];portConstraint=eastwest;rotatable=0;whiteSpace=wrap;html=1;" vertex="1" parent="0yb2NVq4CXMQELFgcC-r-60">
          <mxGeometry y="90" width="140" height="30" as="geometry" />
        </mxCell>
        <mxCell id="0yb2NVq4CXMQELFgcC-r-65" value="&lt;font style=&quot;font-size: 16px;&quot;&gt;FullItemEffect&lt;/font&gt;" style="text;strokeColor=none;fillColor=none;align=left;verticalAlign=middle;spacingLeft=4;spacingRight=4;overflow=hidden;points=[[0,0.5],[1,0.5]];portConstraint=eastwest;rotatable=0;whiteSpace=wrap;html=1;" vertex="1" parent="0yb2NVq4CXMQELFgcC-r-60">
          <mxGeometry y="120" width="140" height="30" as="geometry" />
        </mxCell>
        <mxCell id="0yb2NVq4CXMQELFgcC-r-68" style="edgeStyle=orthogonalEdgeStyle;rounded=0;orthogonalLoop=1;jettySize=auto;html=1;entryX=0;entryY=0.5;entryDx=0;entryDy=0;" edge="1" parent="1" source="0yb2NVq4CXMQELFgcC-r-43" target="0yb2NVq4CXMQELFgcC-r-58">
          <mxGeometry relative="1" as="geometry" />
        </mxCell>
        <mxCell id="0yb2NVq4CXMQELFgcC-r-69" style="edgeStyle=orthogonalEdgeStyle;rounded=0;orthogonalLoop=1;jettySize=auto;html=1;exitX=0;exitY=0.5;exitDx=0;exitDy=0;entryX=1;entryY=0.5;entryDx=0;entryDy=0;" edge="1" parent="1" source="0yb2NVq4CXMQELFgcC-r-61" target="0yb2NVq4CXMQELFgcC-r-57">
          <mxGeometry relative="1" as="geometry" />
        </mxCell>
        <mxCell id="0yb2NVq4CXMQELFgcC-r-74" value="&lt;font style=&quot;font-size: 16px;&quot;&gt;ClassLevelBonus&lt;/font&gt;" style="swimlane;fontStyle=0;childLayout=stackLayout;horizontal=1;startSize=30;horizontalStack=0;resizeParent=1;resizeParentMax=0;resizeLast=0;collapsible=1;marginBottom=0;whiteSpace=wrap;html=1;" vertex="1" parent="1">
          <mxGeometry x="60" y="420" width="140" height="150" as="geometry" />
        </mxCell>
        <mxCell id="0yb2NVq4CXMQELFgcC-r-75" value="&lt;font style=&quot;font-size: 16px;&quot;&gt;ClassID&lt;/font&gt;" style="text;strokeColor=none;fillColor=none;align=left;verticalAlign=middle;spacingLeft=4;spacingRight=4;overflow=hidden;points=[[0,0.5],[1,0.5]];portConstraint=eastwest;rotatable=0;whiteSpace=wrap;html=1;" vertex="1" parent="0yb2NVq4CXMQELFgcC-r-74">
          <mxGeometry y="30" width="140" height="30" as="geometry" />
        </mxCell>
        <mxCell id="0yb2NVq4CXMQELFgcC-r-76" value="&lt;span style=&quot;font-size: 16px;&quot;&gt;Level&lt;/span&gt;" style="text;strokeColor=none;fillColor=none;align=left;verticalAlign=middle;spacingLeft=4;spacingRight=4;overflow=hidden;points=[[0,0.5],[1,0.5]];portConstraint=eastwest;rotatable=0;whiteSpace=wrap;html=1;" vertex="1" parent="0yb2NVq4CXMQELFgcC-r-74">
          <mxGeometry y="60" width="140" height="30" as="geometry" />
        </mxCell>
        <mxCell id="0yb2NVq4CXMQELFgcC-r-77" value="&lt;span style=&quot;font-size: 16px;&quot;&gt;CharacterCounter&lt;/span&gt;" style="text;strokeColor=none;fillColor=none;align=left;verticalAlign=middle;spacingLeft=4;spacingRight=4;overflow=hidden;points=[[0,0.5],[1,0.5]];portConstraint=eastwest;rotatable=0;whiteSpace=wrap;html=1;" vertex="1" parent="0yb2NVq4CXMQELFgcC-r-74">
          <mxGeometry y="90" width="140" height="30" as="geometry" />
        </mxCell>
        <mxCell id="0yb2NVq4CXMQELFgcC-r-78" value="&lt;span style=&quot;font-size: 16px;&quot;&gt;BonusEffect&lt;/span&gt;" style="text;strokeColor=none;fillColor=none;align=left;verticalAlign=middle;spacingLeft=4;spacingRight=4;overflow=hidden;points=[[0,0.5],[1,0.5]];portConstraint=eastwest;rotatable=0;whiteSpace=wrap;html=1;" vertex="1" parent="0yb2NVq4CXMQELFgcC-r-74">
          <mxGeometry y="120" width="140" height="30" as="geometry" />
        </mxCell>
        <mxCell id="0yb2NVq4CXMQELFgcC-r-84" value="&lt;font style=&quot;font-size: 16px;&quot;&gt;Ornn Items&lt;/font&gt;" style="swimlane;fontStyle=0;childLayout=stackLayout;horizontal=1;startSize=30;horizontalStack=0;resizeParent=1;resizeParentMax=0;resizeLast=0;collapsible=1;marginBottom=0;whiteSpace=wrap;html=1;" vertex="1" parent="1">
          <mxGeometry x="510" y="690" width="140" height="150" as="geometry" />
        </mxCell>
        <mxCell id="0yb2NVq4CXMQELFgcC-r-85" value="&lt;span style=&quot;font-size: 16px;&quot;&gt;OrnnItemsID&lt;/span&gt;" style="text;strokeColor=none;fillColor=none;align=left;verticalAlign=middle;spacingLeft=4;spacingRight=4;overflow=hidden;points=[[0,0.5],[1,0.5]];portConstraint=eastwest;rotatable=0;whiteSpace=wrap;html=1;" vertex="1" parent="0yb2NVq4CXMQELFgcC-r-84">
          <mxGeometry y="30" width="140" height="30" as="geometry" />
        </mxCell>
        <mxCell id="0yb2NVq4CXMQELFgcC-r-86" value="&lt;span style=&quot;font-size: 16px;&quot;&gt;Name&lt;/span&gt;" style="text;strokeColor=none;fillColor=none;align=left;verticalAlign=middle;spacingLeft=4;spacingRight=4;overflow=hidden;points=[[0,0.5],[1,0.5]];portConstraint=eastwest;rotatable=0;whiteSpace=wrap;html=1;" vertex="1" parent="0yb2NVq4CXMQELFgcC-r-84">
          <mxGeometry y="60" width="140" height="30" as="geometry" />
        </mxCell>
        <mxCell id="0yb2NVq4CXMQELFgcC-r-87" value="&lt;font style=&quot;font-size: 16px;&quot;&gt;Stats&lt;/font&gt;" style="text;strokeColor=none;fillColor=none;align=left;verticalAlign=middle;spacingLeft=4;spacingRight=4;overflow=hidden;points=[[0,0.5],[1,0.5]];portConstraint=eastwest;rotatable=0;whiteSpace=wrap;html=1;" vertex="1" parent="0yb2NVq4CXMQELFgcC-r-84">
          <mxGeometry y="90" width="140" height="30" as="geometry" />
        </mxCell>
        <mxCell id="0yb2NVq4CXMQELFgcC-r-88" value="&lt;font style=&quot;font-size: 16px;&quot;&gt;ActiveEffect&lt;/font&gt;" style="text;strokeColor=none;fillColor=none;align=left;verticalAlign=middle;spacingLeft=4;spacingRight=4;overflow=hidden;points=[[0,0.5],[1,0.5]];portConstraint=eastwest;rotatable=0;whiteSpace=wrap;html=1;" vertex="1" parent="0yb2NVq4CXMQELFgcC-r-84">
          <mxGeometry y="120" width="140" height="30" as="geometry" />
        </mxCell>
        <mxCell id="0yb2NVq4CXMQELFgcC-r-89" value="&lt;font style=&quot;font-size: 16px;&quot;&gt;Bonus Items&lt;/font&gt;" style="swimlane;fontStyle=0;childLayout=stackLayout;horizontal=1;startSize=30;horizontalStack=0;resizeParent=1;resizeParentMax=0;resizeLast=0;collapsible=1;marginBottom=0;whiteSpace=wrap;html=1;" vertex="1" parent="1">
          <mxGeometry x="700" y="710" width="140" height="150" as="geometry" />
        </mxCell>
        <mxCell id="0yb2NVq4CXMQELFgcC-r-90" value="&lt;span style=&quot;font-size: 16px;&quot;&gt;BonusItemsID&lt;/span&gt;" style="text;strokeColor=none;fillColor=none;align=left;verticalAlign=middle;spacingLeft=4;spacingRight=4;overflow=hidden;points=[[0,0.5],[1,0.5]];portConstraint=eastwest;rotatable=0;whiteSpace=wrap;html=1;" vertex="1" parent="0yb2NVq4CXMQELFgcC-r-89">
          <mxGeometry y="30" width="140" height="30" as="geometry" />
        </mxCell>
        <mxCell id="0yb2NVq4CXMQELFgcC-r-91" value="&lt;span style=&quot;font-size: 16px;&quot;&gt;Name&lt;/span&gt;" style="text;strokeColor=none;fillColor=none;align=left;verticalAlign=middle;spacingLeft=4;spacingRight=4;overflow=hidden;points=[[0,0.5],[1,0.5]];portConstraint=eastwest;rotatable=0;whiteSpace=wrap;html=1;" vertex="1" parent="0yb2NVq4CXMQELFgcC-r-89">
          <mxGeometry y="60" width="140" height="30" as="geometry" />
        </mxCell>
        <mxCell id="0yb2NVq4CXMQELFgcC-r-92" value="&lt;font style=&quot;font-size: 16px;&quot;&gt;Stats&lt;/font&gt;" style="text;strokeColor=none;fillColor=none;align=left;verticalAlign=middle;spacingLeft=4;spacingRight=4;overflow=hidden;points=[[0,0.5],[1,0.5]];portConstraint=eastwest;rotatable=0;whiteSpace=wrap;html=1;" vertex="1" parent="0yb2NVq4CXMQELFgcC-r-89">
          <mxGeometry y="90" width="140" height="30" as="geometry" />
        </mxCell>
        <mxCell id="0yb2NVq4CXMQELFgcC-r-93" value="&lt;font style=&quot;font-size: 16px;&quot;&gt;ActiveEffect&lt;/font&gt;" style="text;strokeColor=none;fillColor=none;align=left;verticalAlign=middle;spacingLeft=4;spacingRight=4;overflow=hidden;points=[[0,0.5],[1,0.5]];portConstraint=eastwest;rotatable=0;whiteSpace=wrap;html=1;" vertex="1" parent="0yb2NVq4CXMQELFgcC-r-89">
          <mxGeometry y="120" width="140" height="30" as="geometry" />
        </mxCell>
        <mxCell id="0yb2NVq4CXMQELFgcC-r-94" value="" style="edgeStyle=orthogonalEdgeStyle;rounded=0;orthogonalLoop=1;jettySize=auto;html=1;entryX=0;entryY=0.5;entryDx=0;entryDy=0;" edge="1" parent="1" source="0yb2NVq4CXMQELFgcC-r-45" target="0yb2NVq4CXMQELFgcC-r-87">
          <mxGeometry relative="1" as="geometry" />
        </mxCell>
        <mxCell id="0yb2NVq4CXMQELFgcC-r-96" value="" style="edgeStyle=orthogonalEdgeStyle;rounded=0;orthogonalLoop=1;jettySize=auto;html=1;entryX=0;entryY=0.5;entryDx=0;entryDy=0;" edge="1" parent="1" source="0yb2NVq4CXMQELFgcC-r-95" target="0yb2NVq4CXMQELFgcC-r-92">
          <mxGeometry relative="1" as="geometry">
            <Array as="points">
              <mxPoint x="320" y="735" />
              <mxPoint x="320" y="850" />
              <mxPoint x="670" y="850" />
              <mxPoint x="670" y="815" />
            </Array>
          </mxGeometry>
        </mxCell>
      </root>
    </mxGraphModel>
  </diagram>
</mxfile>
